<?xml version="1.0" encoding="UTF-8"?>
<!DOCTYPE svg PUBLIC "-//W3C//DTD SVG 1.1//EN" "http://www.w3.org/Graphics/SVG/1.1/DTD/svg11.dtd">
<!-- Creator: CorelDRAW -->
<svg xmlns="http://www.w3.org/2000/svg" xml:space="preserve" width="16.0866mm" height="5.9266mm" style="shape-rendering:geometricPrecision; text-rendering:geometricPrecision; image-rendering:optimizeQuality; fill-rule:evenodd; clip-rule:evenodd"
viewBox="0 0 16.0866 5.9266"
 xmlns:xlink="http://www.w3.org/1999/xlink">
 <defs>
  <style type="text/css">
   <![CDATA[
    .str0 {stroke:#FEFEFE;stroke-width:0.2}
    .fil0 {fill:#FEFEFE}
    .fil2 {fill:#2B2A29;fill-rule:nonzero}
    .fil1 {fill:#C5C6C6;fill-rule:nonzero}
   ]]>
  </style>
 </defs>
 <g id="Warstwa_x0020_1">
  <metadata id="CorelCorpID_0Corel-Layer"/>
  <rect class="fil0 str0" x="0.019" y="-0.0555" width="16.0074" height="5.9972"/>
  <g id="_188147096">
   <g>
    <polygon id="_188143016" class="fil1" points="4.0997,5.5721 4.0997,1.4751 1.1379,1.4751 1.1379,1.9587 3.5579,1.9587 3.5579,3.2131 1.2914,3.2131 1.2914,3.6939 3.5579,3.6939 3.5579,5.0885 1.0425,5.0885 1.0425,5.5721 "/>
    <polygon id="_188142944" class="fil2" points="0.225,4.698 0.225,0.601 2.9894,0.601 2.9894,1.0846 0.7678,1.0846 0.7678,2.3533 2.6899,2.3533 2.6899,2.8369 0.7678,2.8369 0.7678,4.698 "/>
   </g>
   <g>
    <path id="_188141528" class="fil2" d="M4.8352 3.3816l0 -2.0484 1.3822 0 0 0.2418 -1.1108 0 0 0.6343 0.961 0 0 0.2418 -0.961 0 0 0.9305 -0.2714 0zm1.7384 0l0 -2.0484 0.9081 0c0.1827,0 0.3215,0.0186 0.4164,0.0553 0.0949,0.0367 0.1707,0.1016 0.228,0.1946 0.0567,0.0935 0.0849,0.1965 0.0849,0.3091 0,0.1454 -0.0468,0.2675 -0.1412,0.3672 -0.094,0.0997 -0.2395,0.1631 -0.4359,0.1903 0.072,0.0344 0.1263,0.0682 0.1636,0.102 0.0791,0.0726 0.154,0.1636 0.2251,0.2724l0.3562 0.5575 -0.3409 0 -0.271 -0.4264c-0.0791,-0.1225 -0.1445,-0.217 -0.196,-0.2818 -0.051,-0.0654 -0.0968,-0.1111 -0.1374,-0.1369 -0.0405,-0.0262 -0.0815,-0.0444 -0.1235,-0.0549 -0.031,-0.0061 -0.0811,-0.0095 -0.1512,-0.0095l-0.3143 0 0 0.9095 -0.2709 0zm0.2709 -1.1441l0.5829 0c0.1235,0 0.2208,-0.013 0.2904,-0.0387 0.0701,-0.0258 0.1231,-0.0667 0.1593,-0.123 0.0362,-0.0564 0.0544,-0.1174 0.0544,-0.1836 0,-0.0969 -0.0349,-0.1765 -0.1054,-0.239 -0.0701,-0.0625 -0.1813,-0.0935 -0.3334,-0.0935l-0.6482 0 0 0.6778zm1.7971 1.1441l0 -2.0484 1.4809 0 0 0.2418 -1.21 0 0 0.6272 1.1332 0 0 0.2403 -1.1332 0 0 0.6973 1.2577 0 0 0.2418 -1.5286 0zm1.9087 0l0 -2.0484 1.481 0 0 0.2418 -1.2101 0 0 0.6272 1.1333 0 0 0.2403 -1.1333 0 0 0.6973 1.2577 0 0 0.2418 -1.5286 0z"/>
    <path id="_188141624" class="fil1" d="M4.8271 5.5373l0 -2.0485 1.4809 0 0 0.2418 -1.21 0 0 0.6272 1.1332 0 0 0.2404 -1.1332 0 0 0.6973 1.2577 0 0 0.2418 -1.5286 0zm2.4882 0l-0.7937 -2.0485 0.2939 0 0.5322 1.4881c0.043,0.1192 0.0787,0.2313 0.1073,0.3353 0.032,-0.1116 0.0687,-0.2232 0.1107,-0.3353l0.5532 -1.4881 0.2767 0 -0.8023 2.0485 -0.278 0zm1.3292 0l0 -2.0485 1.4809 0 0 0.2418 -1.21 0 0 0.6272 1.1333 0 0 0.2404 -1.1333 0 0 0.6973 1.2577 0 0 0.2418 -1.5286 0zm1.9001 0l0 -2.0485 0.2781 0 1.076 1.6083 0 -1.6083 0.2599 0 0 2.0485 -0.278 0 -1.076 -1.6097 0 1.6097 -0.26 0zm2.5907 0l0 -1.8067 -0.6748 0 0 -0.2418 1.6235 0 0 0.2418 -0.6777 0 0 1.8067 -0.271 0zm1.1347 -0.6582l0.2556 -0.0224c0.0119,0.1025 0.0401,0.1865 0.0845,0.2523 0.0443,0.0658 0.113,0.1188 0.206,0.1593 0.093,0.0405 0.1979,0.0606 0.3143,0.0606 0.1035,0 0.1946,-0.0153 0.2738,-0.0459 0.0791,-0.0309 0.1383,-0.0729 0.1769,-0.1263 0.0386,-0.0539 0.0582,-0.1121 0.0582,-0.1755 0,-0.0644 -0.0186,-0.1202 -0.0563,-0.1684 -0.0372,-0.0482 -0.0987,-0.0883 -0.1841,-0.1206 -0.0553,-0.0215 -0.1764,-0.0549 -0.3648,-0.1002 -0.188,-0.0453 -0.3201,-0.0878 -0.3954,-0.1278 -0.0978,-0.0511 -0.1708,-0.115 -0.219,-0.1908 -0.0476,-0.0759 -0.0715,-0.1608 -0.0715,-0.2552 0,-0.103 0.0291,-0.1998 0.0877,-0.2894 0.0587,-0.0902 0.1446,-0.1584 0.2571,-0.2051 0.113,-0.0463 0.238,-0.0697 0.3759,-0.0697 0.1521,0 0.2856,0.0243 0.402,0.0734 0.1159,0.0487 0.2051,0.1207 0.2676,0.2156 0.062,0.0949 0.0959,0.2027 0.1007,0.3229l-0.26 0.0196c-0.0143,-0.1293 -0.0615,-0.2275 -0.1421,-0.2933 -0.0807,-0.0664 -0.1994,-0.0993 -0.3568,-0.0993 -0.1641,0 -0.2833,0.0301 -0.3586,0.0902 -0.0749,0.0601 -0.1126,0.1326 -0.1126,0.217 0,0.0739 0.0267,0.1345 0.0797,0.1817 0.0524,0.0477 0.1884,0.0963 0.4087,0.1459 0.2203,0.0501 0.3716,0.0935 0.4536,0.1307 0.1192,0.0554 0.2074,0.125 0.2642,0.209 0.0567,0.0844 0.0849,0.1817 0.0849,0.2914 0,0.1091 -0.031,0.2117 -0.0935,0.3081 -0.0624,0.0963 -0.1522,0.1712 -0.269,0.2251 -0.1168,0.0534 -0.2485,0.0801 -0.3944,0.0801 -0.1856,0 -0.341,-0.0267 -0.466,-0.0811 -0.1254,-0.0539 -0.2237,-0.1349 -0.2952,-0.2437 -0.0711,-0.1082 -0.1088,-0.2313 -0.1121,-0.3682z"/>
   </g>
  </g>
 </g>
</svg>
